Coordinates
version=1
nRows=10
nColumns=33
inDegrees=yes

Units are S.I. units (second, meters, Newtons, ...)
Angles are in degrees.

endheader
time	ground_thorax_rot_x	ground_thorax_rot_y	ground_thorax_rot_z	ground_thorax_tx	ground_thorax_ty	ground_thorax_tz	clav_prot_r	clav_elev_r	scapula_abduction_r	scapula_elevation_r	scapula_upward_rot_r	scapula_winging_r	shoulder_elv_r	plane_of_elev_r	axial_rot_r	elbow_flexion_r	pro_sup_r	wrist_flex_r	wrist_dev_r	clav_prot_l	clav_elev_l	scapula_abduction_l	scapula_elevation_l	scapula_upward_rot_l	scapula_winging_l	shoulder_elv_l	plane_of_elev_l	axial_rot_l	elbow_flexion_l	pro_sup_l	wrist_flex_l	wrist_dev_l
      9.40000000	    -18.09446638	    -36.56325070	     57.06681174	     41.31535597	    765.32807292	    -32.01989360	     28.90821868	    -45.00000000	     38.66004489	    -45.00000000	    -45.00000000	  -2261.67635879	  -2267.49356569	    161.89412355	     46.75838939	   1068.52695379	    -20.67813837	     16.81969734	     -0.78725750	     -1.47189340	     29.52195055	    -24.18591401	    -45.00000000	    -45.00000000	  -3161.42746101	  -2085.70161428	     25.91076182	     48.66387242	    709.60800431	     42.22352452	     12.07453995	    -12.65960015
      9.41000000	    -17.85932901	    -36.59224911	     57.44921761	     41.49311563	    764.99289549	    -32.12155181	     28.53691214	    -45.00000000	     38.81593784	    -45.00000000	    -45.00000000	  -2262.01654194	  -2267.47626114	    161.91763498	     47.36688001	   1068.49225060	    -19.15786404	     16.49826736	     -0.91015928	     -1.76037665	     29.44599652	    -24.09972239	    -45.00000000	    -45.00000000	  -3161.39737063	  -2085.89058912	     25.78796326	     47.79448767	    709.84303338	     43.17950150	     12.07276377	    -12.78381882
      9.42000000	    -17.97244494	    -36.60650652	     57.30136264	     41.55898255	    764.70078863	    -32.22615914	     28.85975250	    -45.00000000	     38.77972027	    -45.00000000	    -45.00000000	  -2261.95103088	  -2267.39593555	    162.01199983	     48.39442791	   1068.25736455	    -17.28004340	     16.28882598	     -1.19575004	     -1.64346770	     29.59597623	    -24.05798907	    -45.00000000	    -45.00000000	  -3161.28821751	  -2085.91233676	     25.86943873	     47.69367060	    709.88098117	     43.65330483	     12.05820907	    -13.06122782
      9.43000000	    -17.96682523	    -36.65478234	     57.36100090	     41.51322768	    764.43548231	    -32.32364522	     28.55827755	    -45.00000000	     38.81111473	    -45.00000000	    -45.00000000	  -2262.01619522	  -2267.40132188	    162.07393179	     48.94750808	   1068.30955133	    -14.62977264	     15.74164732	     -1.27522621	     -1.77786641	     29.40962619	    -24.04283350	    -45.00000000	    -45.00000000	  -3161.32722693	  -2085.85533901	     25.65163913	     47.58973461	    710.05287391	     43.87635427	     12.03271275	    -12.94172141
      9.44000000	    -17.55195971	    -36.78281618	     57.87255821	     41.31449204	    764.21672204	    -32.42761298	     29.15791703	    -45.00000000	     39.11040177	    -45.00000000	    -45.00000000	  -2262.23290091	  -2268.21799544	    162.35393571	     46.34472244	   1080.95883523	    164.74750625	      9.90746938	     13.34443043	     -2.20332565	     29.66952413	    -23.82669387	    -45.00000000	    -45.00000000	  -3160.98613082	  -2086.27018220	     25.74665456	     46.04721281	    710.19321032	     44.77170686	     12.10454994	    -13.48801455
      9.45000000	    -18.05661852	    -36.55238698	     57.28040552	     40.96781723	    764.02516865	    -32.54384409	     28.64506045	    -45.00000000	     38.77098710	    -45.00000000	    -45.00000000	  -2262.30817791	  -2268.10634326	    162.13838269	     46.96298256	   1080.86469671	    164.84460548	     10.58123395	     13.42535723	     -1.40686239	     29.41130093	    -24.10286316	    -45.00000000	    -45.00000000	  -3160.99477403	  -2085.99652595	     25.88366883	     47.31138006	    709.91609744	     44.64009976	     12.08199397	    -13.01816927
      9.46000000	    -18.21644498	    -36.46379043	     57.07364664	     40.47705248	    763.85626656	    -32.66533437	     28.63117194	    -45.00000000	     38.83540089	    -45.00000000	    -45.00000000	  -2262.09243000	  -2268.12322292	    162.35023118	     46.25172531	   1080.90996406	    164.68228652	     10.17097847	     13.38126786	     -1.74115308	     29.51508133	    -24.08486827	    -45.00000000	    -45.00000000	  -3161.12672442	  -2085.91486876	     25.73234752	     47.07505089	    710.02770527	     44.54293670	     12.04914411	    -13.34194866
      9.47000000	    -18.62204766	    -36.27239573	     56.57660270	     39.87417125	    763.70334641	    -32.78610693	     28.74721258	    -45.00000000	     38.68457517	    -45.00000000	    -45.00000000	  -2262.21455156	  -2268.17225014	    162.10894868	     46.52733869	   1080.99390933	    164.54686381	     10.41265086	     13.49905250	     -1.67463563	     29.43347814	    -24.31056952	    -45.00000000	    -45.00000000	  -3161.06181402	  -2085.97816665	     25.80462202	     46.99387240	    710.06577177	     44.63769881	     11.92372355	    -13.18869036
      9.48000000	    -18.58447118	    -36.25742917	     56.64878861	     39.16674384	    763.56062948	    -32.89861884	     28.42762299	    -45.00000000	     38.81827564	    -45.00000000	    -45.00000000	  -2262.03697416	  -2267.94716398	    162.46219719	     46.14272231	   1080.89397097	    164.32978569	     10.16019023	     13.34608234	     -1.56056068	     29.38339976	    -24.37904234	    -45.00000000	    -45.00000000	  -3160.91124419	  -2085.91936021	     25.70295658	     46.89702265	    709.93417439	     44.78186937	     12.09398278	    -13.50331481
      9.49000000	    -19.12541482	    -36.00317968	     55.88544976	     38.36565226	    763.42546042	    -32.99514433	     28.85641660	    -45.00000000	     38.62610118	    -45.00000000	    -45.00000000	  -2262.35710289	  -2268.16568558	    161.84830535	     46.53549391	   1081.13709684	    164.09480225	     10.59873448	     13.65760099	     -1.74614640	     29.58341012	    -24.34256471	    -45.00000000	    -45.00000000	  -3161.13110110	  -2085.92272066	     25.82956913	     46.56766702	    710.24530979	     44.99425193	     11.75288910	    -13.14231049
